<svg id="fd95afd0-2b45-4f47-9ae6-53a358aa7284" data-name="Layer 1" xmlns="http://www.w3.org/2000/svg" viewBox="0 0 16 16"><path d="M13.5,12.85a3.0309,3.0309,0,0,0,.55-1.75,3.0251,3.0251,0,1,0-3,3,3.0309,3.0309,0,0,0,1.75-.55L15.25,16l.7-.7L13.5,12.85M11,13.1a2.05,2.05,0,1,1,2.05-2.05A2.02762,2.02762,0,0,1,11,13.1"/><path d="M7.31543,11.7182a2.60814,2.60814,0,0,1-.4502.21014V10.29785h.45838a3.77282,3.77282,0,0,1,.28345-.85815H6.86523V6.86523H9.4397a6.48452,6.48452,0,0,1-.051.76917,3.76124,3.76124,0,0,1,.88715-.30866c.0105-.1535.022-.307.022-.46051h1.71631c-.01569.17267-.04388.33924-.07159.50617a3.76769,3.76769,0,0,1,.80462.30542,6.30664,6.30664,0,0,0,.12512-1.24066A6.483,6.483,0,0,0,6.43616,0,6.483,6.483,0,0,0,0,6.43616a6.483,6.483,0,0,0,6.43616,6.43615,6.30337,6.30337,0,0,0,1.21948-.12182A3.76826,3.76826,0,0,1,7.31543,11.7182ZM11.156,3.43262a5.4073,5.4073,0,0,1,.85815,2.57446H10.29785a8.98774,8.98774,0,0,0-.42908-2.57446Zm-.68653-.85816h-.944A8.57484,8.57484,0,0,0,8.839,1.37305,7.2657,7.2657,0,0,1,10.46948,2.57446ZM6.86523.944A3.19319,3.19319,0,0,1,8.58154,2.57446H6.86523Zm0,2.48865H8.9248a6.88663,6.88663,0,0,1,.5149,2.57446H6.86523ZM4.03333,1.37305A8.57494,8.57494,0,0,0,3.3468,2.57446h-.944A7.26575,7.26575,0,0,1,4.03333,1.37305Zm-2.317,2.05957H3.00354a8.98774,8.98774,0,0,0-.42908,2.57446H.85815A5.40731,5.40731,0,0,1,1.71631,3.43262Zm0,6.00708A5.40735,5.40735,0,0,1,.85815,6.86523H2.57446A8.98781,8.98781,0,0,0,3.00354,9.4397Zm.68652.85815h.944a8.575,8.575,0,0,0,.68653,1.20142A7.2658,7.2658,0,0,1,2.40283,10.29785Zm3.60425,1.63049a3.19319,3.19319,0,0,1-1.71631-1.63049H6.00708Zm0-2.48864H3.94751a6.88686,6.88686,0,0,1-.51489-2.57447H6.00708Zm0-3.43262H3.43262a6.88681,6.88681,0,0,1,.51489-2.57446H6.00708Zm0-3.43262H4.29077A2.918,2.918,0,0,1,6.00708.944Z"/></svg>