<svg version="1.1" viewBox="0 0 16 16" xmlns="http://www.w3.org/2000/svg">
 <g transform="translate(-76.395 -115.93)">
  <path d="m91.293 123.66a0.77217 0.77217 0 0 1 0.83377 0.70519q0.0019 0.0233 0.0019 0.0473a1.095 1.095 0 0 1-1.0871 1.0035 0.79008 0.79008 0 0 1-0.83626-0.83626 1.0271 1.0271 0 0 1 1.0871-0.91987m-1.6723 8.0281c-0.41796 0-0.75264-0.25105-0.41796-1.4215l0.50175-2.007c0.08327-0.33447 0.08327-0.41848-4.93e-4 -0.41848-0.16708-0.0838-0.75264 0.16724-1.0873 0.41798l-0.16708-0.41798c1.0035-0.83641 2.1741-1.3382 2.7597-1.3382 0.41795 0 0.50175 0.50178 0.25089 1.3382l-0.58506 2.1746c-0.08381 0.41797-0.08381 0.50175 0.08381 0.50175a1.6749 1.6749 0 0 0 0.91989-0.50175l0.25089 0.33486a4.8242 4.8242 0 0 1-2.5091 1.3377" stroke-width=".50175"/>
  <path d="m82.2 116.09c-2.4283 0-5.3503 0.45305-5.666 1.0765v2.9707c0.04028 0.16181 0.30758 0.31546 0.72039 0.46923a1.3194 1.3194 0 0 0-0.72039 0.42085v2.922c0.04028 0.1618 0.32376 0.33175 0.75276 0.48568a1.3841 1.3841 0 0 0-0.75276 0.45305v2.9301c0.16188 0.60709 3.7557 1.2222 5.666 1.2222 1.9103 0 5.5041-0.61516 5.666-1.2303v-2.922c-0.04866-0.13736-0.37238-0.29179-0.80944-0.43691 0.46949-0.1618 0.80944-0.32361 0.80944-0.50186v-2.922c-0.04866-0.13775-0.36423-0.27549-0.80944-0.42084 0.4614-0.15405 0.80944-0.32361 0.80944-0.50187v-2.9382c-0.1618-0.4612-3.2377-1.0766-5.666-1.0766zm-4.8566 1.1655h0.08106a10.085 10.085 0 0 0 1.4084 0.45355 19.556 19.556 0 0 0 3.432 0.37211 19.564 19.564 0 0 0 3.432-0.37211 9.8102 9.8102 0 0 0 1.4327-0.38829l0.22668 0.0974v0.46923a10.401 10.401 0 0 1-1.5298 0.40454 19.977 19.977 0 0 1-3.5534 0.38829 19.977 19.977 0 0 1-3.5534-0.38829 10.652 10.652 0 0 1-1.546-0.40454l-0.11318-0.0485v-0.45355s0.06488-0.0485 0.28329-0.1296zm0 3.8448 0.09697 0.0485a10.296 10.296 0 0 0 1.4489 0.37211 19.677 19.677 0 0 0 3.432 0.38829 19.685 19.685 0 0 0 3.432-0.38829 10.005 10.005 0 0 0 1.4327-0.37211l0.22668 0.0974v0.46923a10.409 10.409 0 0 1-1.5298 0.40458 19.977 19.977 0 0 1-3.5534 0.38825 19.977 19.977 0 0 1-3.5534-0.38825 10.668 10.668 0 0 1-1.546-0.40458l-0.11318-0.0485v-0.43687s0.02445-0.0485 0.17011-0.12959zm0 3.8934h0.08106a10.077 10.077 0 0 0 1.4489 0.38829 19.556 19.556 0 0 0 3.432 0.37211 19.564 19.564 0 0 0 3.432-0.37211 9.8021 9.8021 0 0 0 1.3922-0.38829l0.22668 0.097v0.46927a10.264 10.264 0 0 1-1.5298 0.42084 19.977 19.977 0 0 1-3.5534 0.38829 19.977 19.977 0 0 1-3.5534-0.38829 10.523 10.523 0 0 1-1.546-0.42084l-0.11318-0.0485v-0.42084s0.08102-0.0485 0.28329-0.097z" stroke-width=".80942"/>
 </g>
</svg>
